HIERARCHY
ROOT root
{
	OFFSET 0.000000 0.000000 0.000000
	CHANNELS 6 Xposition Yposition Zposition Zrotation Yrotation Xrotation
	JOINT lhip
	{
		OFFSET 0.058581 -0.082280 -0.017664
		CHANNELS 3 Zrotation Yrotation Xrotation
		JOINT lknee
		{
			OFFSET 0.043451 -0.386469 0.008037
			CHANNELS 3 Zrotation Yrotation Xrotation
			JOINT lankle
			{
				OFFSET -0.014790 -0.426874 -0.037428
				CHANNELS 3 Zrotation Yrotation Xrotation
				JOINT ltoe
				{
					OFFSET 0.041054 -0.060286 0.122042
					CHANNELS 3 Zrotation Yrotation Xrotation
					End Site
					{
						OFFSET 0.000000 0.000000 0.000000
					}
				}
			}
		}
	}
	JOINT rhip
	{
		OFFSET -0.060310 -0.090513 -0.013543
		CHANNELS 3 Zrotation Yrotation Xrotation
		JOINT rknee
		{
			OFFSET -0.043257 -0.383688 -0.004843
			CHANNELS 3 Zrotation Yrotation Xrotation
			JOINT rankle
			{
				OFFSET 0.019056 -0.420046 -0.034562
				CHANNELS 3 Zrotation Yrotation Xrotation
				JOINT rtoe
				{
					OFFSET -0.034840 -0.062106 0.130323
					CHANNELS 3 Zrotation Yrotation Xrotation
					End Site
					{
						OFFSET 0.000000 0.000000 0.000000
					}
				}
			}
		}
	}
	JOINT lowerback
	{
		OFFSET 0.004439 0.124404 -0.038385
		CHANNELS 3 Zrotation Yrotation Xrotation
		JOINT upperback
		{
			OFFSET 0.004488 0.137956 0.026820
			CHANNELS 3 Zrotation Yrotation Xrotation
			JOINT chest
			{
				OFFSET -0.002265 0.056032 0.002855
				CHANNELS 3 Zrotation Yrotation Xrotation
				JOINT lowerneck
				{
					OFFSET -0.013390 0.211636 -0.033468
					CHANNELS 3 Zrotation Yrotation Xrotation
					JOINT upperneck
					{
						OFFSET 0.010113 0.088937 0.050410
						CHANNELS 3 Zrotation Yrotation Xrotation
						End Site
						{
							OFFSET 0.000000 0.000000 0.000000
						}
					}
				}
				JOINT lclavicle
				{
					OFFSET 0.071702 0.114000 -0.018898
					CHANNELS 3 Zrotation Yrotation Xrotation
					JOINT lshoulder
					{
						OFFSET 0.122921 0.045205 -0.019046
						CHANNELS 3 Zrotation Yrotation Xrotation
						JOINT lelbow
						{
							OFFSET 0.255332 -0.015649 -0.022946
							CHANNELS 3 Zrotation Yrotation Xrotation
							JOINT lwrist
							{
								OFFSET 0.265709 0.012698 -0.007375
								CHANNELS 3 Zrotation Yrotation Xrotation
								End Site
								{
									OFFSET 0.000000 0.000000 0.000000
								}
							}
						}
					}
				}
				JOINT rclavicle
				{
					OFFSET -0.082954 0.112472 -0.023707
					CHANNELS 3 Zrotation Yrotation Xrotation
					JOINT rshoulder
					{
						OFFSET -0.113228 0.046853 -0.008472
						CHANNELS 3 Zrotation Yrotation Xrotation
						JOINT relbow
						{
							OFFSET -0.260127 -0.014369 -0.031269
							CHANNELS 3 Zrotation Yrotation Xrotation
							JOINT rwrist
							{
								OFFSET -0.269108 0.006794 -0.006027
								CHANNELS 3 Zrotation Yrotation Xrotation
								End Site
								{
									OFFSET 0.000000 0.000000 0.000000
								}
							}
						}
					}
				}
			}
		}
	}
}
MOTION
Frames: 11
Frame Time: 0.033333
-0.386294 0.507074 0.967718 22.450135 7.138182 75.280541 28.324041 16.040876 -36.466334 -6.765048 14.494038 68.412080 -8.052109 7.538062 21.233876 0.000000 -0.000000 0.000000 7.609194 -13.315152 4.873477 -0.798927 -8.493082 28.451256 -6.547532 -17.004977 -23.646342 0.000000 -0.000000 0.000000 -8.348688 4.301431 21.073509 -1.328344 -7.253127 -2.186343 2.327386 -3.903161 -3.136752 5.337716 -0.346726 -10.251473 21.146000 13.161573 4.358877 -21.388274 -17.670417 -5.802736 -16.450612 -32.624388 -11.286484 85.211320 -44.290369 -94.797749 32.773140 18.794348 -46.856050 13.558432 7.779439 -1.435250 35.717216 -0.289622 -4.154199 -33.206422 39.136806 -55.321186 -22.278216 -10.575631 -55.238219 
-0.391351 0.507278 0.961637 22.418434 7.601601 76.121779 28.722343 13.914319 -37.253454 -6.995638 14.436260 66.973518 -7.626175 7.558664 19.701829 0.000000 -0.000000 0.000000 8.746333 -11.682137 2.886689 -1.071133 -10.154825 29.873297 -6.456960 -17.103411 -23.779477 0.000000 -0.000000 0.000000 -10.025036 4.208520 21.156685 0.889779 -7.813065 -2.265174 3.732669 -4.696460 -3.393842 6.025756 2.712264 -11.827205 18.099199 14.064084 4.862297 -22.918321 -15.844892 -3.626364 -20.712249 -32.130041 -7.836243 101.621027 -42.910208 -106.905706 29.921328 17.794211 -53.143290 16.429889 7.441635 -1.977021 35.715732 4.469180 -2.440752 -45.771708 43.052130 -66.979253 -20.185580 -10.350479 -62.030692 
-0.393193 0.507007 0.957887 21.679818 7.641117 76.673411 28.662526 11.936549 -35.393854 -7.549075 14.196984 64.150516 -7.803001 7.260765 18.552057 0.000000 -0.000000 0.000000 8.793879 -10.224789 1.568844 -0.968704 -11.349769 31.176114 -6.473118 -16.527718 -24.127888 0.000000 -0.000000 0.000000 -10.652792 4.137361 20.064928 1.940176 -7.880253 -0.623405 4.226079 -5.497007 -4.214592 7.191520 5.181866 -12.914731 15.965344 14.872027 6.170990 -24.636735 -14.898251 -1.550958 -24.769379 -30.513199 -4.415264 116.013987 -41.007296 -116.571774 26.948338 15.144632 -58.078678 19.095733 8.072278 -1.472193 37.554664 7.456406 0.190636 -61.144324 46.525861 -79.370565 -18.694563 -10.959925 -67.526837 
-0.391528 0.506118 0.956262 19.725611 7.560361 77.041312 28.038717 11.029350 -31.301051 -7.311791 13.979059 60.331413 -6.625995 7.762173 17.316622 0.000000 -0.000000 0.000000 8.661539 -8.875491 0.666515 -0.970902 -11.523017 32.093972 -6.519209 -15.684346 -24.273703 0.000000 -0.000000 0.000000 -10.701988 3.690873 18.541726 2.630151 -7.061006 0.673389 4.571498 -5.900962 -4.775381 8.029544 6.757093 -13.378504 13.804269 16.526641 7.608295 -27.197505 -13.023706 0.558195 -28.556580 -28.602013 -1.138748 128.151075 -40.344308 -124.443413 24.099237 10.657245 -61.061103 22.174240 8.455446 -0.592838 37.612198 9.310767 3.294389 -75.904772 50.482787 -90.137318 -16.328949 -8.554962 -70.755127 
-0.386470 0.504964 0.956166 17.380818 7.555540 77.713461 26.827348 10.300699 -26.705323 -6.618272 13.506726 56.328155 -6.629820 7.908747 13.247253 0.000000 -0.000000 0.000000 8.468500 -7.408377 -0.162720 -0.972032 -11.459714 32.363792 -6.091273 -14.396944 -24.291170 0.000000 -0.000000 0.000000 -10.363601 2.791552 16.448211 3.612417 -6.313152 2.302107 5.024036 -5.953739 -5.491667 8.456172 8.804889 -13.910506 10.791370 18.621995 8.759204 -29.535886 -10.653080 2.682190 -33.244535 -25.516853 2.751935 138.253811 -39.787404 -130.409337 20.435070 3.390555 -63.498016 24.935984 8.627488 0.423394 36.000360 10.880776 5.824564 -89.674568 54.590680 -99.218677 -10.805959 -1.552955 -73.068773 
-0.378573 0.504346 0.958876 15.815685 7.467583 78.531682 25.271288 8.130597 -22.333747 -5.549637 14.162015 52.647941 -7.052786 7.389041 2.715130 0.000000 -0.000000 0.000000 7.697014 -5.697203 -0.500156 -0.791021 -12.415753 31.794834 -4.303879 -12.670837 -24.165050 0.000000 -0.000000 0.000000 -10.202360 1.968343 14.369297 5.003479 -6.328735 4.264842 5.647633 -6.122961 -6.146288 9.416129 11.646191 -14.536420 7.074130 20.474262 9.570377 -30.537312 -8.227084 5.284532 -38.822757 -21.610305 7.651666 145.499082 -39.886026 -135.005485 17.290884 -7.202228 -65.531429 26.654582 8.516869 0.647284 34.345870 12.524080 8.694803 -101.645960 57.414812 -107.515395 -4.694971 8.883716 -74.365045 
-0.368534 0.503172 0.963641 14.142405 7.094221 79.155252 23.940149 5.779413 -18.223689 -5.061960 15.335718 48.503901 -8.122531 6.895641 -4.400277 0.000000 -0.000000 0.000000 6.430536 -4.437306 -0.088682 -0.449881 -12.917904 30.322681 -2.478430 -10.873627 -23.666568 0.000000 -0.000000 0.000000 -9.955891 1.559897 12.908010 6.220329 -6.536026 5.474398 6.507168 -6.598284 -6.978111 10.225983 13.966202 -14.133146 3.948574 22.565045 10.547671 -31.046045 -5.986537 7.776754 -43.515550 -16.739016 11.586061 150.714580 -42.094620 -139.318445 13.811919 -16.912187 -68.865398 27.655807 8.269513 0.515200 32.435683 13.824398 11.550134 -112.926714 60.024219 -115.520613 -0.888244 16.138835 -72.273039 
-0.355963 0.502466 0.969142 11.984826 6.438668 79.774821 22.018677 3.321619 -14.233510 -6.379467 14.296247 42.673052 -8.171651 8.494878 -9.599548 0.000000 -0.000000 0.000000 4.614195 -3.421870 0.197289 0.306972 -12.587954 28.818920 -0.709535 -9.437400 -22.776133 0.000000 -0.000000 0.000000 -9.558637 1.154432 10.788317 7.326063 -6.636276 7.134215 7.196011 -7.040558 -7.233914 10.674225 16.276238 -14.232752 0.763620 24.316437 11.885563 -31.201532 -3.958420 9.362011 -46.586552 -11.976301 14.707411 154.161365 -46.127014 -143.200113 11.050698 -23.858422 -71.861818 28.376308 8.085208 -0.046833 29.297809 15.310399 14.093052 -124.076137 62.621873 -125.473095 3.373413 23.304521 -73.510213 
-0.341740 0.500780 0.975812 9.109471 5.709603 80.108636 20.153182 2.231316 -10.305118 -6.962343 13.215059 38.217279 -9.054529 8.801013 -13.753516 0.000000 -0.000000 0.000000 2.726979 -2.557931 0.732239 0.911095 -11.601417 27.240810 1.292835 -7.908463 -21.459595 0.000000 -0.000000 0.000000 -8.559630 0.790000 8.720399 8.025525 -6.407665 8.589715 7.618316 -7.321438 -7.508181 10.663056 17.434193 -13.543349 -1.939568 25.967592 12.982826 -31.145490 -2.012445 10.432510 -47.523306 -7.318382 16.546358 157.161559 -51.769016 -147.635461 8.099254 -29.824330 -72.163245 28.688434 7.901893 -0.708349 25.861616 16.322560 16.462461 -135.933611 65.361051 -138.040340 8.070606 30.172710 -73.835753 
-0.325315 0.497639 0.981673 6.225493 5.204194 80.646797 18.407277 1.842960 -7.131641 -6.988712 11.826971 34.305901 -9.917897 8.094475 -16.148807 0.000000 -0.000000 0.000000 0.771290 -2.061162 0.767573 1.551817 -10.521081 26.007651 3.437362 -6.410465 -19.514444 0.000000 -0.000000 0.000000 -6.933366 0.250161 6.221518 8.607736 -6.205903 10.397818 8.009393 -7.654506 -8.044991 10.109170 17.876120 -12.246685 -4.623003 27.683208 13.454492 -30.884620 -0.551164 11.587924 -48.197343 -3.180303 16.973151 159.025002 -58.030438 -150.883623 3.888872 -35.037106 -69.637175 28.427978 7.874541 -0.951911 21.498628 17.319108 17.734891 -150.288839 67.910202 -152.333956 12.551413 34.784842 -70.555601 
-0.309531 0.498562 0.987609 4.301724 5.120100 81.344177 17.073026 1.023302 -5.418761 -7.826069 10.410115 31.000542 -9.647346 9.529453 -17.855404 0.000000 -0.000000 0.000000 -0.938161 -1.614464 -0.498454 2.433020 -10.644857 26.366910 5.293365 -5.910634 -17.088610 0.000000 -0.000000 0.000000 -5.290560 -0.574951 4.845128 9.438214 -6.397428 10.882508 8.465633 -8.331769 -7.820439 9.678532 18.138900 -11.876570 -7.027049 29.137791 14.701973 -30.559289 0.580279 12.289377 -48.614562 0.060429 15.796804 159.366032 -64.284113 -149.564191 -3.266219 -38.223033 -61.248024 27.803506 8.062364 -1.632507 17.601197 18.663578 18.116981 -165.319689 69.783747 -165.175266 18.515020 38.186666 -64.846805 
